HIERARCHY
ROOT Root
{
  OFFSET 0.0 0.0 0.0
  CHANNELS 6 Xposition Yposition Zposition Zrotation Yrotation Xrotation
  JOINT Hips
  {
    OFFSET 0.0 100.0 0.0
    CHANNELS 6 Xposition Yposition Zposition Zrotation Yrotation Xrotation
    JOINT Spine1
    {
      OFFSET -0.013727 5.003763 -0.053727
      CHANNELS 3 Zrotation Yrotation Xrotation
      JOINT Spine2
      {
        OFFSET -0.0 7.125301 -0.029825
        CHANNELS 3 Zrotation Yrotation Xrotation
        JOINT Chest
        {
          OFFSET -1e-06 7.550063 -0.815971
          CHANNELS 3 Zrotation Yrotation Xrotation
          JOINT Neck1
          {
            OFFSET -0.181677 26.311295 -0.553348
            CHANNELS 3 Zrotation Yrotation Xrotation
            JOINT Neck2
            {
              OFFSET -3e-06 7.709397 2.302585
              CHANNELS 3 Zrotation Yrotation Xrotation
              JOINT Head
              {
                OFFSET -5e-06 6.128916 1.953709
                CHANNELS 3 Zrotation Yrotation Xrotation
                JOINT HeadEnd
                {
                  OFFSET 0.003598 16.065403 -1.835379
                  CHANNELS 3 Zrotation Yrotation Xrotation
                }
                JOINT Jaw
                {
                  OFFSET 0.002637 0.475592 3.094941
                  CHANNELS 3 Zrotation Yrotation Xrotation
                }
                JOINT LeftEye
                {
                  OFFSET 3.206381 5.380205 7.586883
                  CHANNELS 3 Zrotation Yrotation Xrotation
                }
                JOINT RightEye
                {
                  OFFSET -3.22244 5.361869 7.558234
                  CHANNELS 3 Zrotation Yrotation Xrotation
                }
              }
            }
          }
          JOINT LeftShoulder
          {
            OFFSET 1.621652 23.237164 5.113413
            CHANNELS 3 Zrotation Yrotation Xrotation
            JOINT LeftArm
            {
              OFFSET 14.919846 2e-06 -5.502326
              CHANNELS 3 Zrotation Yrotation Xrotation
              JOINT LeftForeArm
              {
                OFFSET 28.739307 0.0 -0.002588
                CHANNELS 3 Zrotation Yrotation Xrotation
                JOINT LeftHand
                {
                  OFFSET 27.093981 -1e-06 0.002609
                  CHANNELS 3 Zrotation Yrotation Xrotation
                  JOINT LeftHandThumb1
                  {
                    OFFSET 2.276482 -1.392045 3.191413
                    CHANNELS 3 Zrotation Yrotation Xrotation
                    JOINT LeftHandThumb2
                    {
                      OFFSET 4.012836 -1.828127 1.641654
                      CHANNELS 3 Zrotation Yrotation Xrotation
                      JOINT LeftHandThumb3
                      {
                        OFFSET 2.798515 0.0 -3e-06
                        CHANNELS 3 Zrotation Yrotation Xrotation
                        JOINT LeftHandThumbEnd
                        {
                          OFFSET 3.180793 -4e-06 4e-06
                          CHANNELS 3 Zrotation Yrotation Xrotation
                        }
                      }
                    }
                  }
                  JOINT LeftHandIndex1
                  {
                    OFFSET 3.247555 -0.531998 2.296169
                    CHANNELS 3 Zrotation Yrotation Xrotation
                    JOINT LeftHandIndex2
                    {
                      OFFSET 6.364578 0.01206 0.1786
                      CHANNELS 3 Zrotation Yrotation Xrotation
                      JOINT LeftHandIndex3
                      {
                        OFFSET 3.662364 0.0 0.0
                        CHANNELS 3 Zrotation Yrotation Xrotation
                        JOINT LeftHandIndex4
                        {
                          OFFSET 2.329242 4e-06 4e-06
                          CHANNELS 3 Zrotation Yrotation Xrotation
                          JOINT LeftHandIndexEnd
                          {
                            OFFSET 2.759615 -0.180537 -0.113024
                            CHANNELS 3 Zrotation Yrotation Xrotation
                          }
                        }
                      }
                    }
                  }
                  JOINT LeftHandMiddle1
                  {
                    OFFSET 3.163495 0.240981 1.000332
                    CHANNELS 3 Zrotation Yrotation Xrotation
                    JOINT LeftHandMiddle2
                    {
                      OFFSET 6.19078 -0.259278 -1.002548
                      CHANNELS 3 Zrotation Yrotation Xrotation
                      JOINT LeftHandMiddle3
                      {
                        OFFSET 4.35652 -4e-06 -1e-06
                        CHANNELS 3 Zrotation Yrotation Xrotation
                        JOINT LeftHandMiddle4
                        {
                          OFFSET 2.996877 -8e-06 0.0
                          CHANNELS 3 Zrotation Yrotation Xrotation
                          JOINT LeftHandMiddleEnd
                          {
                            OFFSET 2.304287 -0.294569 -0.031741
                            CHANNELS 3 Zrotation Yrotation Xrotation
                          }
                        }
                      }
                    }
                  }
                  JOINT LeftHandRing1
                  {
                    OFFSET 2.882643 -0.053652 -0.322543
                    CHANNELS 3 Zrotation Yrotation Xrotation
                    JOINT LeftHandRing2
                    {
                      OFFSET 5.854541 -0.486202 -1.373841
                      CHANNELS 3 Zrotation Yrotation Xrotation
                      JOINT LeftHandRing3
                      {
                        OFFSET 4.350578 0.0 3e-06
                        CHANNELS 3 Zrotation Yrotation Xrotation
                        JOINT LeftHandRing4
                        {
                          OFFSET 2.651321 7e-06 2e-06
                          CHANNELS 3 Zrotation Yrotation Xrotation
                          JOINT LeftHandRingEnd
                          {
                            OFFSET 1.936105 0.077687 -7.1e-05
                            CHANNELS 3 Zrotation Yrotation Xrotation
                          }
                        }
                      }
                    }
                  }
                  JOINT LeftHandPinky1
                  {
                    OFFSET 2.8655 -0.310005 -1.600378
                    CHANNELS 3 Zrotation Yrotation Xrotation
                    JOINT LeftHandPinky2
                    {
                      OFFSET 5.087849 -1.331141 -1.77123
                      CHANNELS 3 Zrotation Yrotation Xrotation
                      JOINT LeftHandPinky3
                      {
                        OFFSET 3.070974 4e-06 0.0
                        CHANNELS 3 Zrotation Yrotation Xrotation
                        JOINT LeftHandPinky4
                        {
                          OFFSET 1.549672 0.0 1e-06
                          CHANNELS 3 Zrotation Yrotation Xrotation
                          JOINT LeftHandPinkyEnd
                          {
                            OFFSET 1.944893 -0.157802 0.057219
                            CHANNELS 3 Zrotation Yrotation Xrotation
                          }
                        }
                      }
                    }
                  }
                }
              }
            }
          }
          JOINT RightShoulder
          {
            OFFSET -1.380118 23.180309 5.214158
            CHANNELS 3 Zrotation Yrotation Xrotation
            JOINT RightArm
            {
              OFFSET -15.037196 1.2e-05 -5.545604
              CHANNELS 3 Zrotation Yrotation Xrotation
              JOINT RightForeArm
              {
                OFFSET -28.736639 2e-06 -0.002597
                CHANNELS 3 Zrotation Yrotation Xrotation
                JOINT RightHand
                {
                  OFFSET -27.133619 -0.0 0.002613
                  CHANNELS 3 Zrotation Yrotation Xrotation
                  JOINT RightHandThumb1
                  {
                    OFFSET -2.274032 -1.383988 3.163127
                    CHANNELS 3 Zrotation Yrotation Xrotation
                    JOINT RightHandThumb2
                    {
                      OFFSET -4.011429 -1.827466 1.640914
                      CHANNELS 3 Zrotation Yrotation Xrotation
                      JOINT RightHandThumb3
                      {
                        OFFSET -2.794935 -4e-06 -3e-06
                        CHANNELS 3 Zrotation Yrotation Xrotation
                        JOINT RightHandThumbEnd
                        {
                          OFFSET -3.183852 4e-06 1e-06
                          CHANNELS 3 Zrotation Yrotation Xrotation
                        }
                      }
                    }
                  }
                  JOINT RightHandIndex1
                  {
                    OFFSET -3.253266 -0.520057 2.282866
                    CHANNELS 3 Zrotation Yrotation Xrotation
                    JOINT RightHandIndex2
                    {
                      OFFSET -6.341917 0.012471 0.178266
                      CHANNELS 3 Zrotation Yrotation Xrotation
                      JOINT RightHandIndex3
                      {
                        OFFSET -3.654871 -8e-06 -0.0
                        CHANNELS 3 Zrotation Yrotation Xrotation
                        JOINT RightHandIndex4
                        {
                          OFFSET -2.327586 0.0 1e-06
                          CHANNELS 3 Zrotation Yrotation Xrotation
                          JOINT RightHandIndexEnd
                          {
                            OFFSET -2.76179 -0.180656 -0.113078
                            CHANNELS 3 Zrotation Yrotation Xrotation
                          }
                        }
                      }
                    }
                  }
                  JOINT RightHandMiddle1
                  {
                    OFFSET -3.168106 0.246593 1.00103
                    CHANNELS 3 Zrotation Yrotation Xrotation
                    JOINT RightHandMiddle2
                    {
                      OFFSET -6.180828 -0.258836 -1.000895
                      CHANNELS 3 Zrotation Yrotation Xrotation
                      JOINT RightHandMiddle3
                      {
                        OFFSET -4.348901 0.0 -0.0
                        CHANNELS 3 Zrotation Yrotation Xrotation
                        JOINT RightHandMiddle4
                        {
                          OFFSET -3.00024 -4e-06 -2e-06
                          CHANNELS 3 Zrotation Yrotation Xrotation
                          JOINT RightHandMiddleEnd
                          {
                            OFFSET -2.30252 -0.29437 -0.031706
                            CHANNELS 3 Zrotation Yrotation Xrotation
                          }
                        }
                      }
                    }
                  }
                  JOINT RightHandRing1
                  {
                    OFFSET -2.88569 -0.067952 -0.308858
                    CHANNELS 3 Zrotation Yrotation Xrotation
                    JOINT RightHandRing2
                    {
                      OFFSET -5.854198 -0.48613 -1.373731
                      CHANNELS 3 Zrotation Yrotation Xrotation
                      JOINT RightHandRing3
                      {
                        OFFSET -4.33881 -4e-06 -0.0
                        CHANNELS 3 Zrotation Yrotation Xrotation
                        JOINT RightHandRing4
                        {
                          OFFSET -2.654903 -4e-06 4e-06
                          CHANNELS 3 Zrotation Yrotation Xrotation
                          JOINT RightHandRingEnd
                          {
                            OFFSET -1.933568 0.077527 -5.2e-05
                            CHANNELS 3 Zrotation Yrotation Xrotation
                          }
                        }
                      }
                    }
                  }
                  JOINT RightHandPinky1
                  {
                    OFFSET -2.866425 -0.342796 -1.584145
                    CHANNELS 3 Zrotation Yrotation Xrotation
                    JOINT RightHandPinky2
                    {
                      OFFSET -5.091371 -1.332055 -1.772385
                      CHANNELS 3 Zrotation Yrotation Xrotation
                      JOINT RightHandPinky3
                      {
                        OFFSET -3.062664 -4e-06 1e-06
                        CHANNELS 3 Zrotation Yrotation Xrotation
                        JOINT RightHandPinky4
                        {
                          OFFSET -1.546529 4e-06 -2e-06
                          CHANNELS 3 Zrotation Yrotation Xrotation
                          JOINT RightHandPinkyEnd
                          {
                            OFFSET -1.945119 -0.157718 0.057211
                            CHANNELS 3 Zrotation Yrotation Xrotation
                          }
                        }
                      }
                    }
                  }
                }
              }
            }
          }
        }
      }
    }
    JOINT LeftLeg
    {
      OFFSET 10.043214 -8.434526 2.595655
      CHANNELS 3 Zrotation Yrotation Xrotation
      JOINT LeftShin
      {
        OFFSET -1e-06 -43.221752 -0.802913
        CHANNELS 3 Zrotation Yrotation Xrotation
        JOINT LeftFoot
        {
          OFFSET 1e-06 -42.155094 -3.481523
          CHANNELS 3 Zrotation Yrotation Xrotation
          JOINT LeftToeBase
          {
            OFFSET 0.0 -5.059472 13.231529
            CHANNELS 3 Zrotation Yrotation Xrotation
            JOINT LeftToeEnd
            {
              OFFSET -0.009607 -1.647619 6.513017
              CHANNELS 3 Zrotation Yrotation Xrotation
            }
          }
        }
      }
    }
    JOINT RightLeg
    {
      OFFSET -10.047278 -8.29526 2.620317
      CHANNELS 3 Zrotation Yrotation Xrotation
      JOINT RightShin
      {
        OFFSET 1e-06 -43.362206 -0.805556
        CHANNELS 3 Zrotation Yrotation Xrotation
        JOINT RightFoot
        {
          OFFSET 2e-06 -42.117393 -3.478398
          CHANNELS 3 Zrotation Yrotation Xrotation
          JOINT RightToeBase
          {
            OFFSET -0.0 -5.079609 13.284196
            CHANNELS 3 Zrotation Yrotation Xrotation
            JOINT RightToeEnd
            {
              OFFSET 0.009532 -1.634378 6.460591
              CHANNELS 3 Zrotation Yrotation Xrotation
            }
          }
        }
      }
    }
  }
}
MOTION
Frames: 5
Frame Time: 0.03333333333333333
0.0 0.0 0.0 0.0 -0.0 0.0 -0.504714 99.99736 1.84318 1.19897 4.942907 -0.724384 -0.953907 -0.20835 -3.456412 -0.683677 -0.863257 -5.825201 -0.394795 -2.905772 10.003553 2.151451 2.368206 -0.98875 0.919529 5.219246 -3.452165 0.280735 5.790663 -3.676022 7.7e-05 -2.2e-05 6e-06 -0.013533 -0.095617 0.013662 0.727446 -3.826558 -10.609783 -0.755676 3.650316 -10.630784 -23.082125 -6.348017 14.130597 -40.046432 2.28505 3.392142 136.349167 -89.066856 -135.734192 11.60533 -7.278775 17.977549 -5.882108 9.861287 0.702587 -10.936873 -0.360575 7.156209 2e-06 8.774826 -1e-06 -15.588664 18.170656 6.492379 -1.844033 2.498505 -2.507277 -10.163602 4.678946 4.621111 -20.976027 -3e-06 1e-06 -21.226292 2.451697 -3.594002 -1e-06 -5e-06 -1e-06 -1.362682 2.240798 -0.746324 -21.334919 0.58491 3.008326 -13.821219 -2e-06 2e-06 -23.887178 -0.249079 -0.839483 -61.159428 2.695009 -0.996938 -0.294025 1.679687 0.833257 -14.218212 0.093215 1.300581 -34.212059 -0.287561 0.96717 -20.033218 0.964537 1.212844 -1e-06 0.0 -0.0 -3.440389 0.788234 0.501655 -15.928191 -3.16731 2.99971 -6.338829 -2e-06 1e-06 -18.123447 3.648183 -4.905671 -4e-06 2e-06 -2e-06 25.746033 6.929381 13.452999 47.952354 -2.869905 12.876035 -0.510049 39.285583 -0.140121 -12.41062 2.658054 2.910489 2.243543 -5.255037 -3.180157 14.282891 -0.826597 6.952503 -1e-06 -12.690605 -1e-06 15.863978 -17.691652 2.768406 1.665667 -1.955922 -2.878298 4.727798 -4.170588 4.993925 11.020527 3e-06 -2e-06 12.109053 -3.735717 -2.866786 -0.0 -0.0 -1e-06 1.291986 -1.92855 -1.498089 14.800129 0.567466 3.865607 14.242574 -1.341738 -6.660657 19.631969 0.143925 -0.648246 49.471046 -0.537354 -6.056818 0.353029 -1.511151 -0.031939 20.222788 3.684309 2.316628 18.78727 3e-06 -3e-06 10.751629 -0.479868 1.397907 0.0 0.0 0.0 3.273807 0.305946 -0.58011 21.486813 11.830376 2.266131 8.162926 2e-06 -2e-06 18.39908 -3.798986 -4.940575 3e-06 1e-06 0.0 4.152576 15.454211 -0.852402 -0.012806 -0.252316 6.778724 -6.505661 -0.332163 -3.13714 1.64905 -1.963061 -1.218733 0.0 -0.0 2e-06 -8.00158 -8.03666 1.840469 6.5e-05 0.070607 5.057215 9.602111 -0.25315 -5.651031 -1.424641 1.031205 -1.575055 0.0 -0.0 -1e-06 
0.0 0.0 0.0 0.0 -0.0 0.0 -0.503551 99.993073 1.85247 1.206062 4.952697 -0.748076 -0.960295 -0.224303 -3.47047 -0.676214 -0.876619 -5.829019 -0.433639 -2.885707 9.99939 2.063094 2.363935 -0.93044 0.912524 5.187637 -3.451519 0.272609 5.778337 -3.70536 7.7e-05 -2.2e-05 6e-06 -0.012825 -0.097907 0.013301 0.728309 -3.828299 -10.60655 -0.755028 3.647269 -10.626479 -23.118048 -6.331777 14.130597 -40.025505 2.285901 3.383926 135.973572 -89.136787 -135.365448 11.601836 -7.251768 17.972956 -5.88211 9.86129 0.70259 -10.93688 -0.360575 7.156212 2e-06 8.774831 0.0 -15.593736 18.170177 6.47152 -1.844034 2.498506 -2.507281 -10.163607 4.678947 4.621114 -20.97604 -5e-06 2e-06 -21.226305 2.451698 -3.594002 -1e-06 -5e-06 -1e-06 -1.362682 2.240799 -0.746324 -21.334932 0.584909 3.008325 -13.821227 -4e-06 2e-06 -23.88719 -0.24908 -0.839482 -61.117283 2.691417 -1.013359 -0.294025 1.679688 0.833257 -14.218219 0.093214 1.300584 -34.212074 -0.287567 0.967174 -20.03323 0.964535 1.212847 -1e-06 0.0 -0.0 -3.440391 0.788233 0.501657 -15.9282 -3.167312 2.99971 -6.338831 -2e-06 -0.0 -18.123459 3.648183 -4.905674 -5e-06 2e-06 -2e-06 25.766184 6.887897 13.459625 47.960251 -2.922664 12.869109 -0.526435 39.255405 -0.14475 -12.448781 2.654064 2.989163 2.243542 -5.255038 -3.18016 14.282896 -0.826594 6.952504 -4e-06 -12.690609 1e-06 15.88137 -17.711109 2.765254 1.665666 -1.955923 -2.8783 4.727799 -4.17059 4.993925 11.020529 3e-06 -3e-06 12.109055 -3.735715 -2.866787 -0.0 -0.0 -1e-06 1.291985 -1.92855 -1.498089 14.800134 0.567469 3.865608 14.242577 -1.341735 -6.660662 19.631973 0.14393 -0.648248 49.500717 -0.54339 -6.058409 0.353029 -1.511151 -0.031939 20.222797 3.684313 2.316628 18.787279 8e-06 -1e-06 10.751631 -0.479867 1.397906 -1e-06 0.0 -1e-06 3.273808 0.305946 -0.580112 21.48682 11.830381 2.266129 8.162928 2e-06 -2e-06 18.399088 -3.798981 -4.940578 2e-06 1e-06 -0.0 4.15517 15.456477 -0.81688 -0.012603 -0.249522 6.761604 -6.542061 -0.351729 -3.124012 1.648498 -1.955062 -1.215175 -0.0 -1e-06 2e-06 -8.01334 -8.005139 1.877871 0.005575 0.075193 5.051127 9.616674 -0.272999 -5.658318 -1.422142 1.032818 -1.563136 0.0 -0.0 -1e-06 
0.0 0.0 0.0 0.0 -0.0 0.0 -0.499682 99.996796 1.857362 1.211812 4.944753 -0.768807 -0.968049 -0.239737 -3.482474 -0.671352 -0.889971 -5.82848 -0.475118 -2.87599 9.990018 2.002583 2.354549 -0.8973 0.903671 5.171614 -3.452753 0.275718 5.766878 -3.716739 7.7e-05 -2.2e-05 6e-06 -0.012805 -0.102712 0.013539 0.726598 -3.832698 -10.600178 -0.753152 3.64167 -10.619164 -23.147514 -6.322074 14.169091 -39.990242 2.258023 3.337016 135.952133 -89.191338 -135.345139 11.605668 -7.21139 18.000122 -5.882108 9.861286 0.702589 -10.93687 -0.360572 7.156205 1e-06 8.774824 1e-06 -15.590492 18.178501 6.459267 -1.844033 2.498505 -2.507279 -10.163599 4.678947 4.621109 -20.976023 1e-06 -0.0 -21.226286 2.451699 -3.594004 -1e-06 -5e-06 -1e-06 -1.362682 2.240798 -0.746324 -21.334913 0.584914 3.008323 -13.821213 -0.0 0.0 -23.887167 -0.249076 -0.839487 -61.093845 2.702931 -1.035302 -0.294025 1.679687 0.833255 -14.218207 0.093217 1.30058 -34.212048 -0.287559 0.967166 -20.033215 0.964538 1.212839 -0.0 0.0 0.0 -3.440389 0.788234 0.501655 -15.928185 -3.167305 2.999707 -6.338826 -1e-06 -1e-06 -18.123444 3.648185 -4.905672 -5e-06 2e-06 -2e-06 25.774145 6.86214 13.453242 47.98531 -2.985444 12.871103 -0.555558 39.254959 -0.146477 -12.447659 2.645777 3.098423 2.243541 -5.255036 -3.180157 14.282896 -0.826595 6.952503 -3e-06 -12.690609 2e-06 15.917768 -17.734476 2.745983 1.665666 -1.955921 -2.878299 4.727799 -4.170588 4.993925 11.020531 3e-06 -3e-06 12.109056 -3.735716 -2.866785 -0.0 0.0 -1e-06 1.291986 -1.928549 -1.49809 14.800132 0.567469 3.865606 14.242577 -1.341735 -6.660659 19.631973 0.143926 -0.648246 49.525017 -0.554525 -6.073498 0.35303 -1.511151 -0.031939 20.222799 3.684312 2.316628 18.787281 6e-06 -3e-06 10.751631 -0.479868 1.397906 0.0 0.0 0.0 3.273806 0.305949 -0.580112 21.486824 11.830381 2.266131 8.16293 3e-06 -0.0 18.39909 -3.798985 -4.940578 3e-06 1e-06 -0.0 4.149615 15.498804 -0.816726 -0.011495 -0.247727 6.790042 -6.559283 -0.414939 -3.118484 1.647877 -1.940769 -1.231807 -0.0 -0.0 2e-06 -8.023763 -7.950387 1.923836 0.006755 0.076986 4.990191 9.651024 -0.318446 -5.625632 -1.419237 1.037141 -1.553863 0.0 -0.0 -1e-06 
0.0 0.0 0.0 0.0 -0.0 0.0 -0.497075 100.002586 1.861328 1.206282 4.920842 -0.788315 -0.968177 -0.244455 -3.490463 -0.671989 -0.8957 -5.830351 -0.516273 -2.885975 9.983248 1.979544 2.350863 -0.859289 0.893534 5.173996 -3.457286 0.260869 5.757419 -3.731702 7.7e-05 -2.2e-05 6e-06 -0.012733 -0.108023 0.014509 0.723705 -3.838325 -10.59406 -0.749934 3.63589 -10.613131 -23.164154 -6.325633 14.224241 -39.953682 2.220651 3.297003 134.418488 -89.220413 -133.808182 11.608826 -7.15762 17.995289 -5.882107 9.861284 0.702589 -10.936872 -0.360574 7.156204 -0.0 8.774822 -1e-06 -15.579575 18.190502 6.449914 -1.844033 2.498504 -2.507277 -10.163601 4.678946 4.621106 -20.976023 -1e-06 1e-06 -21.226288 2.451699 -3.594001 -0.0 -5e-06 -1e-06 -1.362682 2.240798 -0.746324 -21.334913 0.584911 3.008321 -13.821215 -1e-06 2e-06 -23.887169 -0.249074 -0.839486 -61.098289 2.717491 -1.054261 -0.294025 1.679687 0.833255 -14.218208 0.093217 1.300581 -34.212051 -0.28756 0.967167 -20.033211 0.964536 1.212841 0.0 0.0 0.0 -3.440389 0.788233 0.501655 -15.928185 -3.167307 2.999707 -6.338825 -1e-06 -1e-06 -18.123444 3.648184 -4.905673 -5e-06 1e-06 -2e-06 25.772734 6.850021 13.44109 48.014408 -3.040704 12.909993 -0.611788 39.272362 -0.15975 -12.4293 2.624452 3.203202 2.243541 -5.255037 -3.180157 14.282896 -0.826597 6.952507 -1e-06 -12.690608 1e-06 15.957362 -17.755674 2.723073 1.665666 -1.955922 -2.878301 4.727801 -4.170589 4.993926 11.020529 1e-06 -1e-06 12.109056 -3.735718 -2.866782 -0.0 -0.0 -0.0 1.291986 -1.928551 -1.498089 14.800134 0.567465 3.865609 14.242577 -1.341739 -6.66066 19.631973 0.143922 -0.648247 49.539204 -0.56169 -6.098522 0.353028 -1.51115 -0.03194 20.222797 3.684307 2.316633 18.787279 2e-06 -0.0 10.751633 -0.479871 1.397908 0.0 -1e-06 0.0 3.273808 0.305946 -0.580112 21.48682 11.830376 2.266134 8.16293 0.0 1e-06 18.399094 -3.798991 -4.940577 2e-06 1e-06 -0.0 4.157104 15.534634 -0.849575 -0.012697 -0.251117 6.883643 -6.55092 -0.474113 -3.153999 1.647765 -1.92553 -1.254393 -0.0 -0.0 2e-06 -8.018925 -7.883464 1.96652 0.004054 0.067348 4.911827 9.681931 -0.365327 -5.578368 -1.4172 1.033376 -1.55585 0.0 -0.0 -1e-06 
0.0 0.0 0.0 0.0 -0.0 0.0 -0.504712 100.007652 1.862756 1.196809 4.890346 -0.807653 -0.970376 -0.240655 -3.491329 -0.675468 -0.899671 -5.831158 -0.551829 -2.900185 9.974815 1.973405 2.351352 -0.820957 0.881343 5.173494 -3.465285 0.233068 5.751583 -3.759381 7.7e-05 -2.2e-05 6e-06 -0.012313 -0.116093 0.014916 0.723732 -3.847395 -10.597314 -0.74899 3.627965 -10.616767 -23.159182 -6.354934 14.2384 -39.943516 2.213493 3.268434 133.023376 -89.249573 -132.40889 11.590849 -7.098949 17.954226 -5.882107 9.861286 0.70259 -10.936873 -0.360575 7.156209 1e-06 8.774826 1e-06 -15.577049 18.191565 6.439667 -1.844033 2.498505 -2.507278 -10.1636 4.678946 4.621111 -20.976027 -3e-06 0.0 -21.226292 2.451697 -3.594002 -0.0 -5e-06 -1e-06 -1.362682 2.240798 -0.746325 -21.334917 0.584911 3.008324 -13.821217 -2e-06 1e-06 -23.887175 -0.24908 -0.839485 -61.114647 2.728094 -1.057751 -0.294025 1.679687 0.833256 -14.218212 0.093215 1.300582 -34.212051 -0.287565 0.96717 -20.03322 0.964536 1.212844 -0.0 0.0 0.0 -3.440389 0.788234 0.501655 -15.928189 -3.16731 2.999707 -6.338826 -1e-06 -0.0 -18.123451 3.648182 -4.905672 -4e-06 1e-06 -1e-06 25.758638 6.835804 13.41853 48.032967 -3.087467 13.006559 -0.671479 39.295517 -0.177223 -12.444118 2.580506 3.237424 2.243542 -5.255037 -3.180157 14.282896 -0.826596 6.952499 -3e-06 -12.690607 1e-06 15.980036 -17.767628 2.711249 1.665669 -1.955922 -2.878297 4.727799 -4.170589 4.993922 11.020529 4e-06 -4e-06 12.109056 -3.735716 -2.866785 -0.0 0.0 -0.0 1.291986 -1.928548 -1.49809 14.800136 0.56747 3.865604 14.24258 -1.341734 -6.66066 19.631979 0.143929 -0.648247 49.542881 -0.553062 -6.124442 0.353028 -1.511149 -0.031938 20.222801 3.684313 2.316624 18.787279 9e-06 -4e-06 10.751633 -0.479866 1.397905 0.0 -1e-06 -1e-06 3.273808 0.305947 -0.580111 21.48682 11.830382 2.266128 8.162928 4e-06 -2e-06 18.399088 -3.79898 -4.94058 3e-06 1e-06 -2e-06 4.167346 15.547 -0.886467 -0.01573 -0.259209 6.981263 -6.525309 -0.484013 -3.199749 1.648808 -1.909602 -1.2569 -0.0 -0.0 2e-06 -8.006359 -7.833335 1.995061 0.000835 0.051726 4.855704 9.699073 -0.364172 -5.534537 -1.416624 1.025007 -1.556846 0.0 -0.0 -1e-06 
